<svg xmlns="http://www.w3.org/2000/svg" xmlns:xlink="http://www.w3.org/1999/xlink" viewBox="0 0 206.55 77.54"><defs><style>.a{fill:#17447e;}.b{fill:#004980;}.c{fill:url(#a);}.d{opacity:0.2;}.e{fill:#d0a651;}.f{font-size:14.61px;fill:#1d1d1b;font-family:Margem-Light, Margem;font-weight:300;}.g{letter-spacing:0em;}.h{letter-spacing:-0.01em;}</style><linearGradient id="a" x1="27.57" y1="60.82" x2="27.57" y2="29.53" gradientUnits="userSpaceOnUse"><stop offset="0" stop-color="#bdc7cd"/><stop offset="0.03" stop-color="#c1cbd0"/><stop offset="0.32" stop-color="#e3e7ea"/><stop offset="0.56" stop-color="#f8f9f9"/><stop offset="0.72" stop-color="#fff"/></linearGradient></defs><title>Asset 6</title><path class="a" d="M11.09,71h.71l2,5h-.73l-.48-1.26h-2.3L9.79,76h-.7Zm.33.67-.93,2.48h1.86Z"/><path class="a" d="M16.86,71.7a2.07,2.07,0,0,0-.89-.21c-.37,0-.81.15-.81.67,0,1,2,.74,2,2.39,0,1.07-.77,1.49-1.71,1.49a2.9,2.9,0,0,1-1-.21l.06-.67a2.76,2.76,0,0,0,1,.25.86.86,0,0,0,.92-.82c0-1.12-2-.81-2-2.36A1.36,1.36,0,0,1,16,70.86,3,3,0,0,1,17,71Z"/><path class="a" d="M20.48,71.7a2,2,0,0,0-.88-.21c-.37,0-.82.15-.82.67,0,1,2,.74,2,2.39C20.8,75.62,20,76,19.09,76a2.85,2.85,0,0,1-1-.21l.06-.67a2.71,2.71,0,0,0,1,.25.86.86,0,0,0,.92-.82c0-1.12-2-.81-2-2.36a1.36,1.36,0,0,1,1.51-1.37,3,3,0,0,1,1,.18Z"/><path class="a" d="M24,70.86a2.31,2.31,0,0,1,2.26,2.59C26.26,75,25.43,76,24,76S21.74,75,21.74,73.45A2.3,2.3,0,0,1,24,70.86Zm0,4.55c1.08,0,1.54-1,1.54-2s-.51-2-1.54-2-1.55.94-1.55,2S22.92,75.41,24,75.41Z"/><path class="a" d="M30.72,71.77a1.88,1.88,0,0,0-1-.28,2,2,0,0,0,0,3.92,2.23,2.23,0,0,0,1-.25l0,.7a2.76,2.76,0,0,1-1.07.18,2.39,2.39,0,0,1-2.47-2.61,2.5,2.5,0,0,1,3.53-2.35Z"/><path class="a" d="M31.85,71h.67v5h-.67Z"/><path class="a" d="M35.47,71h.71l2,5h-.73L37,74.69h-2.3L34.18,76h-.71Zm.33.67-.93,2.48h1.87Z"/><path class="a" d="M42.35,71.77a1.88,1.88,0,0,0-1-.28,2,2,0,0,0,0,3.92,2.23,2.23,0,0,0,1-.25l0,.7a2.76,2.76,0,0,1-1.07.18,2.39,2.39,0,0,1-2.47-2.61,2.42,2.42,0,0,1,2.48-2.57,2.39,2.39,0,0,1,1,.22ZM41.24,76l-.31.43v0a.48.48,0,0,1,.2,0,.51.51,0,0,1,.56.52c0,.48-.48.66-.88.66a1.12,1.12,0,0,1-.56-.15l.12-.24a1.06,1.06,0,0,0,.44.11.33.33,0,0,0,.37-.33.28.28,0,0,0-.31-.28,1,1,0,0,0-.27,0l-.12-.13.43-.62Z"/><path class="a" d="M45,71h.7l2,5h-.73l-.47-1.26h-2.3L43.67,76H43Zm-.8-.4c0-.31.17-.8.63-.8s.75.33,1,.33.29-.17.31-.33h.31c0,.3-.17.8-.63.8s-.75-.34-1-.33-.29.16-.31.33Zm1.13,1.07-.94,2.48h1.87Z"/><path class="a" d="M50.62,70.86a2.31,2.31,0,0,1,2.26,2.59c0,1.52-.83,2.59-2.26,2.59S48.36,75,48.36,73.45A2.3,2.3,0,0,1,50.62,70.86Zm0,4.55c1.08,0,1.54-1,1.54-2s-.51-2-1.54-2-1.55.94-1.55,2S49.54,75.41,50.62,75.41Z"/><path class="a" d="M56.2,71h1.27c1,0,1.64.34,1.64,1.26a1.13,1.13,0,0,1-1,1.19v0a1.13,1.13,0,0,1,1.09,1.2c0,1.07-.83,1.33-1.78,1.33H56.2Zm.67,2.14h.37c.65,0,1.2-.07,1.2-.81s-.48-.74-.87-.74h-.7Zm0,2.27h.5c.61,0,1.15-.13,1.15-.81s-.64-.88-1.22-.88h-.43Z"/><path class="a" d="M60.57,71h1.15c.93,0,1.82.16,1.82,1.35a1.14,1.14,0,0,1-1,1.14v0c.21.08.31.19.46.5l.89,2h-.77l-.72-1.73c-.21-.49-.43-.49-.79-.49h-.4V76h-.67Zm.67,2.15h.57c.64,0,1-.3,1-.78s-.33-.74-.94-.74h-.65Z"/><path class="a" d="M66.47,71h.7l2,5h-.74L68,74.69h-2.3L65.17,76h-.7Zm.33.67-.94,2.48h1.87Z"/><path class="a" d="M72.23,71.7a2,2,0,0,0-.88-.21c-.37,0-.82.15-.82.67,0,1,2,.74,2,2.39,0,1.07-.77,1.49-1.71,1.49a2.85,2.85,0,0,1-1-.21l.06-.67a2.71,2.71,0,0,0,1,.25.86.86,0,0,0,.92-.82c0-1.12-2-.81-2-2.36a1.36,1.36,0,0,1,1.51-1.37,3,3,0,0,1,1,.18Z"/><path class="a" d="M73.73,71h.67v5h-.67Z"/><path class="a" d="M75.86,71h.67v4.37h2V76H75.86Z"/><path class="a" d="M79.53,71h2.63v.63h-2V73H82v.63H80.2v1.65h2V76H79.53Z"/><path class="a" d="M83.5,71h.67v5H83.5Z"/><path class="a" d="M85.6,71h1.15c.92,0,1.82.16,1.82,1.35a1.15,1.15,0,0,1-1,1.14v0c.21.08.31.19.46.5l.88,2h-.76l-.72-1.73c-.21-.49-.43-.49-.79-.49h-.4V76H85.6Zm.67,2.15h.57c.64,0,1-.3,1-.78s-.33-.74-1-.74h-.64Z"/><path class="a" d="M91.5,71h.7l2,5h-.73L93,74.69h-2.3L90.2,76h-.71Zm.33.67-.94,2.48h1.87Z"/><path class="a" d="M97.23,71h1.38a2.37,2.37,0,0,1,2.5,2.46A2.29,2.29,0,0,1,98.61,76H97.23Zm.67,4.37h.71c1.15,0,1.79-.59,1.79-1.88a1.7,1.7,0,0,0-1.71-1.86H97.9Z"/><path class="a" d="M104.4,70.86a2.3,2.3,0,0,1,2.26,2.59c0,1.52-.82,2.59-2.26,2.59s-2.25-1.07-2.25-2.59A2.3,2.3,0,0,1,104.4,70.86Zm0,4.55c1.09,0,1.55-1,1.55-2s-.51-2-1.55-2-1.54.94-1.54,2S103.32,75.41,104.4,75.41Z"/><path class="a" d="M110,71.7a2.06,2.06,0,0,0-.88-.21c-.38,0-.83.15-.83.67,0,1,2,.74,2,2.39,0,1.07-.77,1.49-1.71,1.49a2.9,2.9,0,0,1-1-.21l.06-.67a2.76,2.76,0,0,0,1,.25.86.86,0,0,0,.92-.82c0-1.12-2-.81-2-2.36a1.36,1.36,0,0,1,1.51-1.37,3,3,0,0,1,1,.18Z"/><path class="a" d="M113.61,71h1.23c1,0,1.76.36,1.76,1.5a1.46,1.46,0,0,1-1.66,1.5h-.66v2h-.67Zm.67,2.37H115a.86.86,0,0,0,.94-.88c0-.63-.62-.86-1-.86h-.57Z"/><path class="a" d="M117.61,71h1.15c.93,0,1.82.16,1.82,1.35a1.14,1.14,0,0,1-1,1.14v0c.2.08.31.19.45.5l.89,2h-.77l-.71-1.73c-.21-.49-.43-.49-.79-.49h-.4V76h-.68Zm.68,2.15h.57c.64,0,1-.3,1-.78s-.32-.74-.94-.74h-.64Z"/><path class="a" d="M124,70.86a2.3,2.3,0,0,1,2.26,2.59C126.3,75,125.48,76,124,76s-2.25-1.07-2.25-2.59A2.3,2.3,0,0,1,124,70.86Zm0,4.55c1.09,0,1.55-1,1.55-2s-.51-2-1.55-2-1.54.94-1.54,2S123,75.41,124,75.41Z"/><path class="a" d="M127.48,71h1.39a2.37,2.37,0,0,1,2.5,2.46,2.29,2.29,0,0,1-2.5,2.54h-1.39Zm.68,4.37h.7c1.16,0,1.8-.59,1.8-1.88a1.7,1.7,0,0,0-1.72-1.86h-.78Z"/><path class="a" d="M136.29,73.88c0,1.41-.66,2.16-1.82,2.16s-1.82-.75-1.82-2.16V71h.67v2.84c0,1,.29,1.62,1.15,1.62s1.15-.66,1.15-1.62V71h.67Z"/><path class="a" d="M138.7,71.58h-1.46V71h3.59v.63h-1.46V76h-.67Z"/><path class="a" d="M143.79,70.86A2.3,2.3,0,0,1,146,73.45c0,1.52-.82,2.59-2.25,2.59s-2.26-1.07-2.26-2.59A2.3,2.3,0,0,1,143.79,70.86Zm0,4.55c1.08,0,1.54-1,1.54-2s-.51-2-1.54-2-1.55.94-1.55,2S142.7,75.41,143.79,75.41Z"/><path class="a" d="M147.22,71h1.15c.93,0,1.83.16,1.83,1.35a1.15,1.15,0,0,1-1,1.14v0c.21.08.31.19.45.5l.89,2h-.76l-.72-1.73c-.21-.49-.43-.49-.79-.49h-.4V76h-.68Zm.68,2.15h.57c.64,0,1-.3,1-.78s-.32-.74-.94-.74h-.64Z"/><path class="a" d="M151.67,71h2.63v.63h-2V73h1.78v.63h-1.78v1.65h2V76h-2.63Z"/><path class="a" d="M157.77,71.7a2,2,0,0,0-.88-.21c-.37,0-.82.15-.82.67,0,1,2,.74,2,2.39,0,1.07-.77,1.49-1.71,1.49a2.9,2.9,0,0,1-1-.21l.06-.67a2.71,2.71,0,0,0,1,.25.86.86,0,0,0,.92-.82c0-1.12-2-.81-2-2.36a1.36,1.36,0,0,1,1.51-1.37,3,3,0,0,1,1,.18Z"/><path class="a" d="M161.37,71h1.38a2.37,2.37,0,0,1,2.5,2.46,2.29,2.29,0,0,1-2.5,2.54h-1.38Zm.67,4.37h.71c1.15,0,1.79-.59,1.79-1.88a1.69,1.69,0,0,0-1.71-1.86H162Z"/><path class="a" d="M166.56,71h2.63v.63h-2V73H169v.63h-1.79v1.65h2V76h-2.63Z"/><path class="a" d="M174.16,71h.7l2,5h-.73l-.48-1.26h-2.29L172.86,76h-.71Zm.33.67-.94,2.48h1.87Z"/><path class="a" d="M177.78,71h.68v4.37h2V76h-2.64Z"/><path class="a" d="M185,71.84a2,2,0,0,0-1.29-.35,2,2,0,0,0,0,3.92,2.37,2.37,0,0,0,.75-.09V73.8h-1v-.59h1.66v2.61a4.1,4.1,0,0,1-1.43.22,2.39,2.39,0,0,1-2.47-2.61,2.42,2.42,0,0,1,2.48-2.57,3.2,3.2,0,0,1,1.37.26Z"/><path class="a" d="M188.55,70.86a2.3,2.3,0,0,1,2.26,2.59c0,1.52-.82,2.59-2.26,2.59S186.3,75,186.3,73.45A2.3,2.3,0,0,1,188.55,70.86Zm0,4.55c1.09,0,1.55-1,1.55-2s-.51-2-1.55-2-1.54.94-1.54,2S187.47,75.41,188.55,75.41Z"/><path class="a" d="M192,71h1.39a2.37,2.37,0,0,1,2.5,2.46,2.29,2.29,0,0,1-2.5,2.54H192Zm.68,4.37h.7c1.16,0,1.8-.59,1.8-1.88a1.7,1.7,0,0,0-1.72-1.86h-.78Z"/><path class="a" d="M198.64,71h.71l2,5h-.73l-.48-1.26h-2.3L197.34,76h-.7Zm-.8-.4c0-.31.18-.8.63-.8s.75.33,1,.33.29-.17.31-.33h.31c0,.3-.18.8-.64.8s-.75-.34-1-.33-.29.16-.31.33ZM199,71.62,198,74.1h1.86Z"/><path class="a" d="M204.29,70.86a2.31,2.31,0,0,1,2.26,2.59c0,1.52-.83,2.59-2.26,2.59S202,75,202,73.45A2.31,2.31,0,0,1,204.29,70.86Zm0,4.55c1.08,0,1.55-1,1.55-2s-.52-2-1.55-2-1.55.94-1.55,2S203.21,75.41,204.29,75.41Z"/><path class="b" d="M62.26,52.19l-3.69,8.67H54.85l14.09-32,13.72,32H78.9l-3.61-8.67Zm6.59-15.38L63.63,49H74Z"/><path class="b" d="M84.48,60.86V30.33H95.82c5.42,0,9.06,2.1,9.06,7.93,0,2.76-.88,5-3.35,6.24v.08c4.37.57,6.23,3.52,6.23,7.77,0,6.4-5.47,8.51-11.05,8.51Zm7.94-18.55h.89c2.1,0,4.29-.36,4.29-3,0-2.79-2.47-3-4.62-3h-.56Zm0,12.47h1c2.35,0,6.31.12,6.31-3.24,0-3.68-3.92-3.32-6.51-3.32h-.81Z"/><path class="b" d="M136.26,60.86h-9.88l-7.49-11.74h-.08V60.86h-7.93V30.33h11.86c6,0,10.6,2.87,10.6,9.39,0,4.21-2.34,7.85-6.67,8.63ZM118.81,44h.77c2.59,0,5.51-.48,5.51-3.8s-2.92-3.81-5.51-3.81h-.77Z"/><path class="b" d="M142.46,52.19l-3.69,8.67h-3.72l14.08-32,13.73,32H159.1l-3.61-8.67Zm6.6-15.38L143.83,49h10.33Z"/><path class="b" d="M168.57,60.86h-3.4V30.33h5c2.63,0,5.34.08,7.57,1.62a8.43,8.43,0,0,1,3.44,7,8.55,8.55,0,0,1-2.92,6.56c-2.06,1.7-4.69,2-7.24,2h-2.47Zm0-16.53h2.26c3.77,0,7-1.13,7-5.5,0-5-4-5.34-8-5.34h-1.25Z"/><path class="b" d="M185.86,52.19l-3.68,8.67h-3.73l14.09-32,13.72,32H202.5l-3.6-8.67Zm6.6-15.38L187.24,49h10.32Z"/><path class="c" d="M40.84,34.37a5.23,5.23,0,0,0-1.24-.18,6.5,6.5,0,0,0-4.78-4.26,6.26,6.26,0,0,0-5.41,2A7.27,7.27,0,0,0,27,31.5a7.15,7.15,0,0,0-1.4.14,6.28,6.28,0,0,0-5.47-2c-2.28.37-4.06,2.19-4.95,4.68a5.58,5.58,0,0,0-1.28.19c-4.61,1.25-7,8.3-4.79,15.64,2.11,7.07,8.09,11.45,12.7,10.2,1-.27.34.18,1.9-.68a8.5,8.5,0,0,0,3.47,1.19,6.27,6.27,0,0,0,3.52-1c.79.88,2.21.65,3.35.5,5.13-.64,9.29-4.79,11.73-10.93C48.61,42.28,45.46,35.62,40.84,34.37Z"/><g class="d"><path class="b" d="M15.36,34.35a21.58,21.58,0,0,1,2.1-2.5,6.17,6.17,0,0,1,1-.8,5.16,5.16,0,0,1,1.11-.51,5,5,0,0,1,3,0,17.07,17.07,0,0,1,3,1.25,4.82,4.82,0,0,0-2.74-2.12,6.06,6.06,0,0,0-2.21-.23,5.7,5.7,0,0,0-1.29.26,6.36,6.36,0,0,0-1.3.59,6.64,6.64,0,0,0-1.19.94A5.06,5.06,0,0,0,15.36,34.35Z"/><path class="b" d="M39.62,34.42a5,5,0,0,0-1.57-3.1,6.43,6.43,0,0,0-1.24-.88,5.61,5.61,0,0,0-1.19-.5,6.84,6.84,0,0,0-1.15-.22,6.29,6.29,0,0,0-2.21.23,4.79,4.79,0,0,0-2.74,2.12,16.44,16.44,0,0,1,3-1.24,5.48,5.48,0,0,1,1.88-.19,5.74,5.74,0,0,1,1,.18,5.54,5.54,0,0,1,1,.42,5.44,5.44,0,0,1,1.06.76A19.45,19.45,0,0,1,39.62,34.42Z"/><path class="b" d="M19.87,35.94a5.14,5.14,0,0,0-2.93-1.83,6.38,6.38,0,0,0-.86-.14,6.12,6.12,0,0,0-.62,0,5.6,5.6,0,0,0-1.46.18,6.45,6.45,0,0,0-2.9,1.67,8.94,8.94,0,0,0-1.92,2.91,15,15,0,0,0-1,5.95,19.44,19.44,0,0,0,.22,2.62,22.34,22.34,0,0,0,.56,2.56,18.49,18.49,0,0,0,2.7,5.37,20.05,20.05,0,0,0,4.43,4.44c1.12.62,3.55,1.33,2.34.63l-.71-.4-.5-.29a2.43,2.43,0,0,1-.49-.34,21.31,21.31,0,0,1-4.32-4.57,17.8,17.8,0,0,1-2.58-5.09,18.48,18.48,0,0,1-.53-2.45,15.34,15.34,0,0,1-.21-2.49,14.15,14.15,0,0,1,1-5.58,8.33,8.33,0,0,1,1.72-2.62A5.52,5.52,0,0,1,14.22,35a4.75,4.75,0,0,1,1.24-.15H16c.33,0,.59.09.76.12A24.3,24.3,0,0,1,19.87,35.94Z"/><path class="b" d="M38.82,57.85a6.81,6.81,0,0,0,3-1.75c.21-.2.57-.57,1-1.05a18.55,18.55,0,0,0,2.32-3.34,14.72,14.72,0,0,0,1.45-4.14,16.22,16.22,0,0,0,.28-4.92,12.83,12.83,0,0,0-1.1-4.19,8.79,8.79,0,0,0-2.45-3.23,6.31,6.31,0,0,0-3.82-1.38,7,7,0,0,0-2.18.34,5.53,5.53,0,0,0-2.78,2c1.11-.47,1.82-.75,3.06-1.17a6.29,6.29,0,0,1,1.89-.29A5.27,5.27,0,0,1,42.7,36a7.72,7.72,0,0,1,2.2,2.88,12,12,0,0,1,1,3.9,15.5,15.5,0,0,1-.26,4.64,13.69,13.69,0,0,1-1.37,3.89,16.91,16.91,0,0,1-2.21,3.17c-.4.46-.75.81-.94,1C40.16,56.4,39.66,57,38.82,57.85Z"/><path class="b" d="M37,45.61a7.77,7.77,0,0,0,.15-3.43c0-.19-.09-.47-.16-.83l-.14-.58c-.09-.35-.22-.78-.36-1.19a14.63,14.63,0,0,0-2.88-5.1,9.4,9.4,0,0,0-4.48-2.92,7.63,7.63,0,0,0-2.36-.27,6.45,6.45,0,0,0-1.38.18,8.36,8.36,0,0,0-3.13,1.44,11.68,11.68,0,0,0-3,3.24,16.12,16.12,0,0,0-1.79,4A17.63,17.63,0,0,0,17,42.18a7.77,7.77,0,0,0,.15,3.43,31.8,31.8,0,0,0,.74-3.27,19.76,19.76,0,0,1,.47-2A15.4,15.4,0,0,1,20,36.64a10.88,10.88,0,0,1,2.75-3,7,7,0,0,1,6.1-1.21,8.61,8.61,0,0,1,4,2.65,13.88,13.88,0,0,1,2.69,4.78c.13.4.25.81.34,1.13l.13.55.16.79A31.8,31.8,0,0,0,37,45.61Z"/></g><path class="e" d="M18.9,64.29A36.1,36.1,0,0,0,37,60.68c10.19-4.87,15.79-.4,15.79-.4-4.39-5.61-10.67-4.85-16.45-2.74-6,2.21-13.1,4-18.64,4A87.81,87.81,0,0,1,5.88,60.6,44.37,44.37,0,0,1,0,59,48.6,48.6,0,0,0,18.9,64.29Z"/><path class="e" d="M29.78,60.41c-4.48,2.18,3.76-5.85,6.38-11.95,1.69-3.92,5-6.62,9.46-6.2a8,8,0,0,0-7,6.43S36.84,57,29.78,60.41Z"/><path class="e" d="M25.17,60.72c4.49,2.18-3.76-5.86-6.38-11.95-1.68-3.93-4.15-6.86-8.64-6.44,0,0,4.66.58,6.14,6.67C16.29,49,18.11,57.27,25.17,60.72Z"/><text class="f" transform="translate(9.35 11.86)">Reali<tspan class="g" x="30.26" y="0">z</tspan><tspan x="36.87" y="0">ado</tspan><tspan class="h" x="61.17" y="0">r</tspan><tspan x="66.57" y="0">a</tspan></text></svg>