<svg xmlns="http://www.w3.org/2000/svg" viewBox="0 0 179.81 73.12"><defs><style>.a{fill:#09467e;}.b{font-size:14.61px;fill:#1d1d1b;font-family:Margem-Light, Margem;font-weight:300;}</style></defs><title>Asset 5</title><path class="a" d="M51.57,30.69a19.07,19.07,0,0,1,2.51.43,7,7,0,0,1,4.33,2.94,6.55,6.55,0,0,1,1,4.51,12.06,12.06,0,0,1-7.86,10c-.37.16-.75.28-1.18.45l.31.1a8.69,8.69,0,0,1,3.85,2.11,5.62,5.62,0,0,1,1.59,3.48A11.67,11.67,0,0,1,54.6,61.4a14.94,14.94,0,0,1-7.68,6.93,16.81,16.81,0,0,1-4.32,1c-1.51.19-3,.36-4.54.48-.35,0-.71,0-1.07,0H16.44c-.38,0-.39,0-.29-.37q2-7,4-13.93,3-10.62,6-21.23c.34-1.19.67-2.39,1-3.58ZM34.63,61.34c.73,0,1.45,0,2.18,0a12,12,0,0,0,2.93-.28A5.18,5.18,0,0,0,43.89,57a2.43,2.43,0,0,0-1.82-3.13,5.89,5.89,0,0,0-1.86-.3l-6.8,0a.42.42,0,0,0-.47.35c-.66,2.37-1.34,4.74-2,7.12-.1.33-.08.35.27.35ZM38.45,46a27.75,27.75,0,0,0,3.81-.12,5.43,5.43,0,0,0,2.59-1,4.92,4.92,0,0,0,1.83-3.3,2.18,2.18,0,0,0-1.78-2.68,6.87,6.87,0,0,0-1.62-.22c-1.92,0-3.84,0-5.76,0-.18,0-.26.07-.31.25q-1,3.41-1.94,6.81c-.06.22,0,.29.23.29Z"/><path class="a" d="M89.4,30.69c.19,2,.39,4.05.58,6.08.15,1.69.3,3.38.46,5.07.19,2.11.41,4.22.61,6.33.15,1.69.3,3.38.46,5.07s.32,3.32.48,5c.12,1.23.22,2.47.33,3.7.14,1.45.29,2.9.42,4.35.11,1.1.2,2.19.3,3.29,0,.16,0,.24-.2.24H80.71c-.47,0-.47,0-.47-.47,0-2.81,0-5.63-.07-8.44,0-2.28,0-4.56-.07-6.84s0-4.65-.06-7c-.05-1.9,0-3.8-.05-5.7a.47.47,0,0,0,0-.27c-.38.61-.74,1.21-1.1,1.8q-6.5,10.76-13,21.5c-1,1.68-2,3.36-3,5a.63.63,0,0,1-.63.35H50.56c-.12,0-.29.06-.36,0s.08-.25.15-.35l12-18L75.25,31.87,76,30.69Z"/><path class="a" d="M23.33,30.69c-.15.8-.41,1.56-.63,2.34L14.24,62.76q-1,3.38-1.92,6.76a.35.35,0,0,1-.38.29H.16l-.16,0v-.19c0-.1.07-.19.1-.3q1.71-6,3.43-12.08,2.52-8.79,5-17.59l2.55-8.93Z"/><path class="a" d="M138.89,73.12a5.76,5.76,0,0,1-2-.73,2.76,2.76,0,0,1-1.26-1.67c-.06-.23,0-.33.24-.33h2.33c.12,0,.23,0,.3.12a1.35,1.35,0,0,0,1.56.53,1.2,1.2,0,0,0,1-1.07,2.5,2.5,0,0,0,.08-1,.21.21,0,0,0-.21.09A3.41,3.41,0,0,1,135.55,67a3.88,3.88,0,0,1,1.87-4.27,3.25,3.25,0,0,1,3.06-.11,2.09,2.09,0,0,1,.68.55l0-.06c0-.56-.11-.56.57-.56h1.67c.23,0,.34.06.34.32,0,2.22.05,4.45,0,6.68a3.35,3.35,0,0,1-3,3.52.42.42,0,0,0-.12,0Zm.82-5.55a1.44,1.44,0,0,0,1.56-1.5,1.56,1.56,0,0,0-3.12,0A1.42,1.42,0,0,0,139.71,67.57Z"/><path class="a" d="M179.81,66.82a4,4,0,0,1-3.91,3.05,4.82,4.82,0,0,1-3.09-.76,3.65,3.65,0,0,1-.1-5.93,5.12,5.12,0,0,1,5.72,0,3.64,3.64,0,0,1,1.38,2.22Zm-4.27.81a1.44,1.44,0,0,0,1.58-1.52,1.5,1.5,0,0,0-1.56-1.54A1.53,1.53,0,0,0,174,66.12,1.46,1.46,0,0,0,175.54,67.63Z"/><path class="a" d="M152.33,49.72a2.66,2.66,0,0,1,2.36-1c.27,0,.38.08.37.36,0,.57,0,1.15,0,1.82a3.84,3.84,0,0,1,1.52-1.68,5.19,5.19,0,0,1,5.35.22,3.64,3.64,0,0,1-.35,6.07,5,5,0,0,1-4.69.15,3.52,3.52,0,0,1-2-4.11c.08-.42.08-.43-.34-.53a2.48,2.48,0,0,0-1.27,0,1.47,1.47,0,0,0-1,1.45c0,1,0,2,0,2.93,0,.46,0,.46-.48.46H150c-.24,0-.34-.08-.34-.33,0-2.15,0-4.31,0-6.46,0-.23.09-.32.32-.32h2c.22,0,.31.1.31.31s0,.41,0,.62Zm6.76,1.1a1.53,1.53,0,1,0,0,3.06,1.53,1.53,0,1,0,0-3.06Z"/><path class="a" d="M105.54,50.31l.23.06a2.24,2.24,0,0,1,1.8,2.15,3.75,3.75,0,0,1-.08,1.29,2.8,2.8,0,0,1-2.31,1.93,5.25,5.25,0,0,1-1.31.13H100c-.29,0-.4-.07-.4-.39q0-4.8,0-9.6c0-.3.08-.41.39-.41,1.23,0,2.46,0,3.69,0a4.11,4.11,0,0,1,1.15.17,2.45,2.45,0,0,1,1.78,2.84A2.11,2.11,0,0,1,105.54,50.31Zm-3.19,2.37c0,.28,0,.55,0,.82s0,.25.21.25a5,5,0,0,0,1.49-.13.88.88,0,0,0,.72-1,.9.9,0,0,0-.75-.94,6.05,6.05,0,0,0-1.47-.08c-.16,0-.2.09-.2.23Zm0-4.14c0,.25,0,.5,0,.75s.05.24.22.24a3.42,3.42,0,0,0,.78-.06.83.83,0,0,0,.68-.92.79.79,0,0,0-.71-.85c-.23-.05-.46-.06-.69-.09s-.29.06-.28.27S102.35,48.32,102.35,48.54Z"/><path class="a" d="M130.28,69.66h-1.14a.4.4,0,0,1-.42-.3c-.15-.42-.32-.84-.47-1.27a.34.34,0,0,0-.37-.25q-1.55,0-3.09,0a.36.36,0,0,0-.4.27c-.16.42-.34.84-.5,1.26a.4.4,0,0,1-.42.29H121.2c-.34,0-.36,0-.23-.37l3-7.84c.25-.63.5-1.27.74-1.91a.4.4,0,0,1,.44-.3h2.36a.39.39,0,0,1,.42.3q1.85,4.87,3.71,9.77c.12.32.09.35-.26.35S130.65,69.66,130.28,69.66Zm-3.91-7h-.07c-.32.94-.63,1.87-1,2.8-.06.17,0,.24.16.24.55,0,1.11,0,1.67,0,.17,0,.19-.08.15-.22Z"/><path class="a" d="M104.82,69a3.05,3.05,0,0,1-3.48.57,3.47,3.47,0,0,1-2.18-3A3.6,3.6,0,0,1,101,62.79a3.16,3.16,0,0,1,3.69.21l.11.07h0c.07-.1,0-.22,0-.33,0-1.36,0-2.73,0-4.09,0-.32.08-.43.41-.42.59,0,1.18,0,1.76,0s.45,0,.45.46V69.24c0,.41,0,.42-.43.42s-1.14,0-1.7,0-.47,0-.49-.46A1.23,1.23,0,0,0,104.82,69Zm-1.47-1.4a1.4,1.4,0,0,0,1.56-1.49,1.47,1.47,0,0,0-1.54-1.57,1.53,1.53,0,0,0-1.59,1.56A1.45,1.45,0,0,0,103.35,67.63Z"/><path class="a" d="M159,69a2.42,2.42,0,0,1-1.34.8,3.54,3.54,0,0,1-4.21-2.65A3.92,3.92,0,0,1,154.81,63a3.36,3.36,0,0,1,4,0l.11.07c.09-.11.05-.23.05-.34,0-1.36,0-2.73,0-4.09,0-.42,0-.42.42-.42h1.86c.24,0,.33.08.33.33V69.33c0,.26-.11.34-.35.34h-1.8c-.45,0-.44,0-.47-.45C159,69.16,159,69.11,159,69Zm-1.44-1.37a1.46,1.46,0,0,0,1.58-1.5,1.59,1.59,0,0,0-3.17,0A1.46,1.46,0,0,0,157.53,67.63Z"/><path class="a" d="M167.93,69a2.5,2.5,0,0,1-1.36.82,3.54,3.54,0,0,1-4.12-2.35,3.84,3.84,0,0,1,2.12-4.91,3.32,3.32,0,0,1,3.32.53l0,0c.06-.47.06-.47.52-.47h1.8c.23,0,.31.08.31.31v6.46c0,.25-.11.33-.34.33h-1.83c-.43,0-.43,0-.44-.43C167.94,69.17,167.94,69.12,167.93,69Zm-1.47-1.34a1.42,1.42,0,0,0,1.56-1.5,1.47,1.47,0,0,0-1.55-1.57,1.52,1.52,0,0,0-1.58,1.56A1.47,1.47,0,0,0,166.46,67.64Z"/><path class="a" d="M119.57,55.28c-1.53,1.64-4.93.91-5.59-2.07A3.81,3.81,0,0,1,115.72,49a3.25,3.25,0,0,1,3.65.17c.18.12.24.1.23-.11s.12-.31.34-.3h2c.23,0,.32.08.32.31,0,2.15,0,4.31,0,6.46,0,.25-.09.33-.33.33h-1.83c-.42,0-.42,0-.45-.43A.69.69,0,0,0,119.57,55.28Zm-1.42-4.46a1.53,1.53,0,1,0,0,3.06,1.53,1.53,0,1,0,0-3.06Z"/><path class="a" d="M112.23,69.89A4.67,4.67,0,0,1,109.4,69a3.64,3.64,0,0,1,.18-5.81,5.12,5.12,0,0,1,5.48,0,3.65,3.65,0,0,1-.78,6.44A4.78,4.78,0,0,1,112.23,69.89Zm.14-2.26a1.42,1.42,0,0,0,1.54-1.52,1.56,1.56,0,0,0-3.12,0A1.43,1.43,0,0,0,112.37,67.63Z"/><path class="a" d="M153,65.52c0,2.17-.76,3.29-2.17,3.91a5,5,0,0,1-4.61-.16,3.62,3.62,0,0,1-.2-6.19,4.89,4.89,0,0,1,5.29,0A3.26,3.26,0,0,1,153,65.52Zm-4.33,2.11a1.46,1.46,0,0,0,1.61-1.5,1.59,1.59,0,0,0-3.17,0A1.46,1.46,0,0,0,148.67,67.63Z"/><path class="a" d="M153.56,38.75a3.37,3.37,0,0,1-2.15,3.14,4.94,4.94,0,0,1-4.52-.11,3.64,3.64,0,0,1,0-6.39,4.94,4.94,0,0,1,4.83,0A3.47,3.47,0,0,1,153.56,38.75Zm-2.71-.16a1.59,1.59,0,1,0-1.58,1.53A1.51,1.51,0,0,0,150.85,38.59Z"/><path class="a" d="M106.3,35.78a2.59,2.59,0,0,1,2.24-1,2.46,2.46,0,0,1,2.63,2.63c0,1.45,0,2.9,0,4.35,0,.3-.1.38-.38.37q-.9,0-1.8,0c-.3,0-.4-.08-.4-.39,0-1.05,0-2.1,0-3.15a5.73,5.73,0,0,0,0-.82,1,1,0,0,0-.73-.88,1.23,1.23,0,0,0-1.36.49,1.8,1.8,0,0,0-.22.91c0,1.14,0,2.29,0,3.43,0,.32-.11.42-.42.41q-.93,0-1.86,0c-.27,0-.35-.1-.34-.35q0-3.21,0-6.4c0-.28.1-.37.37-.36.62,0,1.24,0,1.86,0,.31,0,.42.1.39.4A.53.53,0,0,0,106.3,35.78Z"/><path class="a" d="M142.48,52.78h-2.33c-.25,0-.32.09-.28.32a1.24,1.24,0,0,0,.92,1.09,1.47,1.47,0,0,0,1.62-.35.55.55,0,0,1,.46-.22h1.83c.32,0,.35,0,.24.36a2.85,2.85,0,0,1-1.86,1.83,4.64,4.64,0,0,1-4.69-.72,3,3,0,0,1-1-1.71,4.11,4.11,0,0,1,.21-2.68,3.49,3.49,0,0,1,3.14-2.12,5,5,0,0,1,1.91.16,3.44,3.44,0,0,1,2.45,3c0,.19,0,.37,0,.56,0,.39,0,.42-.39.42Zm-1.16-1.49h1.14c.22,0,.25-.08.16-.26a1.37,1.37,0,0,0-1.28-.77A1.39,1.39,0,0,0,140,51c-.1.18-.06.27.16.27Z"/><path class="a" d="M132.13,37.49c0-.71,0-1.43,0-2.14,0-.25.09-.34.33-.33h1.86c.29,0,.39.08.39.37,0,1.08,0,2.17,0,3.25a4.11,4.11,0,0,0,.07.78,1,1,0,0,0,1,.84H136a1,1,0,0,0,1.15-1.12c0-1.22,0-2.44,0-3.66,0-.47,0-.47.47-.47h1.83c.23,0,.31.09.31.31,0,1.38,0,2.76,0,4.13a2.65,2.65,0,0,1-2.22,2.72,6.34,6.34,0,0,1-3.66-.16,2.55,2.55,0,0,1-1.71-2.48C132.12,38.86,132.13,38.17,132.13,37.49Z"/><path class="a" d="M126.77,48.58a5.31,5.31,0,0,1,2,.33c.21.08.25.18.14.38q-.31.55-.6,1.14c-.1.19-.2.22-.4.15a2.27,2.27,0,0,0-1.38-.2c-.22,0-.46.12-.47.39s.22.37.43.43c.38.11.76.17,1.13.28A2,2,0,0,1,129.19,53a2.31,2.31,0,0,1-.81,2.38,4.06,4.06,0,0,1-3.13.75,5.5,5.5,0,0,1-2-.63c-.24-.12-.27-.24-.14-.46.23-.42.45-.84.65-1.26.1-.2.2-.23.39-.11a4.39,4.39,0,0,0,1.25.51,2.24,2.24,0,0,0,.63,0c.33,0,.6-.21.61-.44s-.24-.45-.5-.52-.78-.18-1.16-.29a2,2,0,0,1-.9-3.39,3.17,3.17,0,0,1,2.19-1Z"/><path class="a" d="M115.7,34.77a7.18,7.18,0,0,1,2,.35c.24.09.32.19.17.44s-.38.68-.55,1-.24.31-.51.2a2.29,2.29,0,0,0-1-.22h-.15c-.25.05-.54.1-.57.4s.23.4.47.47.69.14,1,.24a2,2,0,0,1,1.66,2,2.33,2.33,0,0,1-1.29,2.15,4.64,4.64,0,0,1-3.54.3,5.45,5.45,0,0,1-1.23-.49c-.17-.09-.22-.2-.12-.38.24-.43.47-.87.7-1.31.1-.19.19-.23.39-.11a4.07,4.07,0,0,0,1.56.57,1.16,1.16,0,0,0,.69-.13.39.39,0,0,0,0-.69,1.83,1.83,0,0,0-.71-.25l-.76-.19a1.86,1.86,0,0,1-1.39-2.5,2.48,2.48,0,0,1,2-1.75A5.31,5.31,0,0,1,115.7,34.77Z"/><path class="a" d="M136.57,50.18v5.26c0,.43,0,.43-.45.43-.6,0-1.2,0-1.79,0-.27,0-.37-.07-.37-.36V44.81c0-.28.09-.38.36-.37.6,0,1.2,0,1.8,0,.42,0,.45,0,.45.44Z"/><path class="a" d="M132.13,63.92V58.69c0-.46,0-.46.45-.46h1.79c.25,0,.33.09.33.33q0,5.39,0,10.77c0,.27-.1.35-.35.35q-.93,0-1.86,0c-.27,0-.37-.1-.36-.37Z"/><path class="a" d="M119.34,39.61c0-.72,0-1.43,0-2.15,0-.25-.08-.32-.33-.32-.48,0-.48,0-.48-.49s0-.86,0-1.29c0-.26.1-.35.36-.34.46,0,.46,0,.46-.47s0-.88,0-1.32c0-.24.08-.34.33-.34h2c.24,0,.35.08.34.33,0,.51,0,1,0,1.51,0,.22.08.31.3.3s.55,0,.82,0,.29.07.28.28v1.57c0,.2-.08.28-.28.28h-.69c-.42,0-.42,0-.42.41v4.09c0,.47,0,.47-.47.47s-1.2,0-1.8,0c-.26,0-.35-.09-.35-.35C119.34,41.05,119.34,40.33,119.34,39.61Z"/><path class="a" d="M141.1,39.61c0-.7,0-1.4,0-2.11,0-.27-.07-.37-.35-.36-.43,0-.43,0-.43-.44s0-.88,0-1.33c0-.24.07-.36.34-.35.45,0,.45,0,.45-.45s0-.88,0-1.32c0-.25.08-.36.35-.36h1.92c.26,0,.35.1.34.36,0,.45,0,.9,0,1.35s0,.42.4.42h.76c.19,0,.27.08.27.26v1.61c0,.19-.09.26-.28.26s-.52,0-.78,0-.38.08-.38.37c0,1.38,0,2.75,0,4.13,0,.48,0,.48-.49.48s-1.15,0-1.73,0c-.31,0-.4-.11-.39-.4C141.11,41,141.1,40.32,141.1,39.61Z"/><path class="a" d="M127.78,39.62c0-.72,0-1.43,0-2.14,0-.24,0-.35-.31-.34-.51,0-.51,0-.51-.53s0-.82,0-1.23.07-.37.35-.36c.47,0,.47,0,.47-.46s0-.9,0-1.35c0-.24.1-.32.32-.32H130c.25,0,.34.1.34.34,0,.47,0,.94,0,1.41,0,.28.06.42.37.39s.5,0,.75,0,.29.07.29.28c0,.52,0,1.05,0,1.57,0,.21-.1.28-.29.27s-.49,0-.73,0-.4.08-.4.39c0,1.33,0,2.67,0,4,0,.59,0,.59-.58.59s-1.13,0-1.7,0c-.25,0-.33-.09-.33-.34C127.78,41.07,127.78,40.34,127.78,39.62Z"/><path class="a" d="M102.35,36.93v4.76c0,.43,0,.43-.44.43h-2c-.24,0-.33-.09-.33-.33q0-4.87,0-9.74c0-.26.1-.32.34-.32.68,0,1.37,0,2,0,.29,0,.38.08.38.37C102.35,33.72,102.35,35.33,102.35,36.93Z"/><path class="a" d="M111.1,49.86a2.57,2.57,0,0,1,1.75-1.13,5.58,5.58,0,0,1,.82,0c.16,0,.21.09.21.24V50.9c0,.23-.1.24-.28.17a2.27,2.27,0,0,0-1.21-.1,1.51,1.51,0,0,0-1.28,1.66c0,.93,0,1.86,0,2.8,0,.44,0,.44-.43.44h-1.85c-.23,0-.33-.08-.33-.31,0-2.16,0-4.33,0-6.49,0-.24.11-.31.33-.31h2c.25,0,.35.09.34.34S111.1,49.54,111.1,49.86Z"/><path class="a" d="M148.43,52.32c0,1.06,0,2.12,0,3.18,0,.29-.1.39-.38.38-.64,0-1.28,0-1.92,0-.24,0-.32-.09-.32-.32V49.08c0-.21.09-.31.3-.3h2c.24,0,.33.09.33.33C148.43,50.18,148.43,51.25,148.43,52.32Z"/><path class="a" d="M126.31,38.57v3.12c0,.43,0,.43-.45.43h-1.79c-.24,0-.33-.08-.33-.33V35.34c0-.25.1-.32.34-.32H126c.25,0,.34.08.34.34C126.3,36.43,126.31,37.5,126.31,38.57Z"/><path class="a" d="M132.74,52.34c0,1.06,0,2.12,0,3.18,0,.27-.08.37-.36.36q-.94,0-1.89,0c-.25,0-.32-.09-.32-.33q0-3.21,0-6.42c0-.26.08-.36.34-.36q.94,0,1.89,0c.26,0,.34.1.34.36C132.73,50.2,132.74,51.27,132.74,52.34Z"/><path class="a" d="M167.65,61.23a4,4,0,0,1-1.08-.24q-.34-.12-.69-.21c-.47-.11-.5-.1-.76.31a.25.25,0,0,1-.2.13h-.85a.2.2,0,0,1-.22-.22,1.87,1.87,0,0,1,1.51-2,3.49,3.49,0,0,1,1.11.18l1,.25a.5.5,0,0,0,.63-.26.34.34,0,0,1,.35-.21h.76c.14,0,.2.06.21.21a2.2,2.2,0,0,1-1.48,2Z"/><path class="a" d="M125,33.8a1.44,1.44,0,1,1,1.45-1.44A1.45,1.45,0,0,1,125,33.8Z"/><path class="a" d="M131.45,47.55a1.43,1.43,0,0,1-1.45-1.4,1.46,1.46,0,0,1,2.91,0A1.45,1.45,0,0,1,131.45,47.55Z"/><path class="a" d="M147.13,47.55a1.41,1.41,0,0,1-1.44-1.42,1.46,1.46,0,0,1,1.43-1.43,1.43,1.43,0,0,1,1.44,1.43A1.37,1.37,0,0,1,147.13,47.55Z"/><text class="b" transform="translate(12.5 11.86)">Apoio</text></svg>