<?xml version="1.0" encoding="UTF-8" standalone="no"?>
<svg
   xmlns:dc="http://purl.org/dc/elements/1.1/"
   xmlns:cc="http://creativecommons.org/ns#"
   xmlns:rdf="http://www.w3.org/1999/02/22-rdf-syntax-ns#"
   xmlns:svg="http://www.w3.org/2000/svg"
   xmlns="http://www.w3.org/2000/svg"
   xmlns:sodipodi="http://sodipodi.sourceforge.net/DTD/sodipodi-0.dtd"
   xmlns:inkscape="http://www.inkscape.org/namespaces/inkscape"
   viewBox="0 0 581.23424 286.79258"
   version="1.1"
   id="svg90"
   sodipodi:docname="logo.svg"
   inkscape:version="0.92.4 (5da689c313, 2019-01-14)"
   width="581.23425"
   height="286.79257">
  <metadata
     id="metadata94">
    <rdf:RDF>
      <cc:Work
         rdf:about="">
        <dc:format>image/svg+xml</dc:format>
        <dc:type
           rdf:resource="http://purl.org/dc/dcmitype/StillImage" />
        <dc:title>Asset 7</dc:title>
      </cc:Work>
    </rdf:RDF>
  </metadata>
  <sodipodi:namedview
     pagecolor="#ffffff"
     bordercolor="#666666"
     borderopacity="1"
     objecttolerance="10"
     gridtolerance="10"
     guidetolerance="10"
     inkscape:pageopacity="0"
     inkscape:pageshadow="2"
     inkscape:window-width="1920"
     inkscape:window-height="1000"
     id="namedview92"
     showgrid="false"
     inkscape:zoom="0.59270423"
     inkscape:cx="-14.174117"
     inkscape:cy="142.96961"
     inkscape:window-x="0"
     inkscape:window-y="40"
     inkscape:window-maximized="1"
     inkscape:current-layer="svg90"
     fit-margin-top="0"
     fit-margin-left="0"
     fit-margin-right="0"
     fit-margin-bottom="0" />
  <defs
     id="defs4">
    <style
       id="style2">.a{fill:#004a84;}.b{fill:#f1bd00;}.c{fill:#e95153;}.d{fill:#fff;}</style>
    <clipPath
       clipPathUnits="userSpaceOnUse"
       id="clipPath4614">
      <rect
         id="rect4616"
         width="581.23425"
         height="286.82089"
         x="141.7233"
         y="509.52902"
         ry="0"
         style="opacity:0.29600004;stroke-width:0.77782404" />
    </clipPath>
    <clipPath
       clipPathUnits="userSpaceOnUse"
       id="clipPath4618">
      <rect
         id="rect4620"
         width="581.23425"
         height="286.82089"
         x="141.7233"
         y="509.52902"
         ry="0"
         style="opacity:0.29600004;stroke-width:0.77782404" />
    </clipPath>
    <clipPath
       clipPathUnits="userSpaceOnUse"
       id="clipPath4622">
      <rect
         id="rect4624"
         width="581.23425"
         height="286.82089"
         x="141.7233"
         y="509.52902"
         ry="0"
         style="opacity:0.29600004;stroke-width:0.77782404" />
    </clipPath>
    <clipPath
       clipPathUnits="userSpaceOnUse"
       id="clipPath4626">
      <rect
         id="rect4628"
         width="581.23425"
         height="286.82089"
         x="141.7233"
         y="509.52902"
         ry="0"
         style="opacity:0.29600004;stroke-width:0.77782404" />
    </clipPath>
    <clipPath
       clipPathUnits="userSpaceOnUse"
       id="clipPath4630">
      <rect
         id="rect4632"
         width="581.23425"
         height="286.82089"
         x="141.7233"
         y="509.52902"
         ry="0"
         style="opacity:0.29600004;stroke-width:0.77782404" />
    </clipPath>
    <clipPath
       clipPathUnits="userSpaceOnUse"
       id="clipPath4634">
      <rect
         id="rect4636"
         width="581.23425"
         height="286.82089"
         x="141.7233"
         y="509.52902"
         ry="0"
         style="opacity:0.29600004;stroke-width:0.77782404" />
    </clipPath>
    <clipPath
       clipPathUnits="userSpaceOnUse"
       id="clipPath4638">
      <rect
         id="rect4640"
         width="581.23425"
         height="286.82089"
         x="141.7233"
         y="509.52902"
         ry="0"
         style="opacity:0.29600004;stroke-width:0.77782404" />
    </clipPath>
    <clipPath
       clipPathUnits="userSpaceOnUse"
       id="clipPath4642">
      <rect
         id="rect4644"
         width="581.23425"
         height="286.82089"
         x="141.7233"
         y="509.52902"
         ry="0"
         style="opacity:0.29600004;stroke-width:0.77782404" />
    </clipPath>
    <clipPath
       clipPathUnits="userSpaceOnUse"
       id="clipPath4646">
      <rect
         id="rect4648"
         width="581.23425"
         height="286.82089"
         x="141.7233"
         y="509.52902"
         ry="0"
         style="opacity:0.29600004;stroke-width:0.77782404" />
    </clipPath>
    <clipPath
       clipPathUnits="userSpaceOnUse"
       id="clipPath4650">
      <rect
         id="rect4652"
         width="581.23425"
         height="286.82089"
         x="141.7233"
         y="509.52902"
         ry="0"
         style="opacity:0.29600004;stroke-width:0.77782404" />
    </clipPath>
    <clipPath
       clipPathUnits="userSpaceOnUse"
       id="clipPath4654">
      <rect
         id="rect4656"
         width="581.23425"
         height="286.82089"
         x="141.7233"
         y="509.52902"
         ry="0"
         style="opacity:0.29600004;stroke-width:0.77782404" />
    </clipPath>
    <clipPath
       clipPathUnits="userSpaceOnUse"
       id="clipPath4658">
      <rect
         id="rect4660"
         width="581.23425"
         height="286.82089"
         x="141.7233"
         y="509.52902"
         ry="0"
         style="opacity:0.29600004;stroke-width:0.77782404" />
    </clipPath>
    <clipPath
       clipPathUnits="userSpaceOnUse"
       id="clipPath4662">
      <rect
         id="rect4664"
         width="581.23425"
         height="286.82089"
         x="141.7233"
         y="509.52902"
         ry="0"
         style="opacity:0.29600004;stroke-width:0.77782404" />
    </clipPath>
    <clipPath
       clipPathUnits="userSpaceOnUse"
       id="clipPath4666">
      <rect
         id="rect4668"
         width="581.23425"
         height="286.82089"
         x="141.7233"
         y="509.52902"
         ry="0"
         style="opacity:0.29600004;stroke-width:0.77782404" />
    </clipPath>
    <clipPath
       clipPathUnits="userSpaceOnUse"
       id="clipPath4670">
      <rect
         id="rect4672"
         width="581.23425"
         height="286.82089"
         x="141.7233"
         y="509.52902"
         ry="0"
         style="opacity:0.29600004;stroke-width:0.77782404" />
    </clipPath>
    <clipPath
       clipPathUnits="userSpaceOnUse"
       id="clipPath4674">
      <rect
         id="rect4676"
         width="581.23425"
         height="286.82089"
         x="141.7233"
         y="509.52902"
         ry="0"
         style="opacity:0.29600004;stroke-width:0.77782404" />
    </clipPath>
    <clipPath
       clipPathUnits="userSpaceOnUse"
       id="clipPath4678">
      <rect
         id="rect4680"
         width="581.23425"
         height="286.82089"
         x="141.7233"
         y="509.52902"
         ry="0"
         style="opacity:0.29600004;stroke-width:0.77782404" />
    </clipPath>
    <clipPath
       clipPathUnits="userSpaceOnUse"
       id="clipPath4682">
      <rect
         id="rect4684"
         width="581.23425"
         height="286.82089"
         x="141.7233"
         y="509.52902"
         ry="0"
         style="opacity:0.29600004;stroke-width:0.77782404" />
    </clipPath>
    <clipPath
       clipPathUnits="userSpaceOnUse"
       id="clipPath4686">
      <rect
         id="rect4688"
         width="581.23425"
         height="286.82089"
         x="141.7233"
         y="509.52902"
         ry="0"
         style="opacity:0.29600004;stroke-width:0.77782404" />
    </clipPath>
    <clipPath
       clipPathUnits="userSpaceOnUse"
       id="clipPath4690">
      <rect
         id="rect4692"
         width="581.23425"
         height="286.82089"
         x="141.7233"
         y="509.52902"
         ry="0"
         style="opacity:0.29600004;stroke-width:0.77782404" />
    </clipPath>
    <clipPath
       clipPathUnits="userSpaceOnUse"
       id="clipPath4694">
      <rect
         id="rect4696"
         width="581.23425"
         height="286.82089"
         x="141.7233"
         y="509.52902"
         ry="0"
         style="opacity:0.29600004;stroke-width:0.77782404" />
    </clipPath>
    <clipPath
       clipPathUnits="userSpaceOnUse"
       id="clipPath4698">
      <rect
         id="rect4700"
         width="581.23425"
         height="286.82089"
         x="141.7233"
         y="509.52902"
         ry="0"
         style="opacity:0.29600004;stroke-width:0.77782404" />
    </clipPath>
    <clipPath
       clipPathUnits="userSpaceOnUse"
       id="clipPath4702">
      <rect
         id="rect4704"
         width="581.23425"
         height="286.82089"
         x="141.7233"
         y="509.52902"
         ry="0"
         style="opacity:0.29600004;stroke-width:0.77782404" />
    </clipPath>
    <clipPath
       clipPathUnits="userSpaceOnUse"
       id="clipPath4706">
      <rect
         id="rect4708"
         width="581.23425"
         height="286.82089"
         x="141.7233"
         y="509.52902"
         ry="0"
         style="opacity:0.29600004;stroke-width:0.77782404" />
    </clipPath>
    <clipPath
       clipPathUnits="userSpaceOnUse"
       id="clipPath4710">
      <rect
         id="rect4712"
         width="581.23425"
         height="286.82089"
         x="141.7233"
         y="509.52902"
         ry="0"
         style="opacity:0.29600004;stroke-width:0.77782404" />
    </clipPath>
    <clipPath
       clipPathUnits="userSpaceOnUse"
       id="clipPath4714">
      <rect
         id="rect4716"
         width="581.23425"
         height="286.82089"
         x="141.7233"
         y="509.52902"
         ry="0"
         style="opacity:0.29600004;stroke-width:0.77782404" />
    </clipPath>
    <clipPath
       clipPathUnits="userSpaceOnUse"
       id="clipPath4718">
      <rect
         id="rect4720"
         width="581.23425"
         height="286.82089"
         x="141.7233"
         y="509.52902"
         ry="0"
         style="opacity:0.29600004;stroke-width:0.77782404" />
    </clipPath>
    <clipPath
       clipPathUnits="userSpaceOnUse"
       id="clipPath4722">
      <rect
         id="rect4724"
         width="581.23425"
         height="286.82089"
         x="141.7233"
         y="509.52902"
         ry="0"
         style="opacity:0.29600004;stroke-width:0.77782404" />
    </clipPath>
    <clipPath
       clipPathUnits="userSpaceOnUse"
       id="clipPath4726">
      <rect
         id="rect4728"
         width="581.23425"
         height="286.82089"
         x="141.7233"
         y="509.52902"
         ry="0"
         style="opacity:0.29600004;stroke-width:0.77782404" />
    </clipPath>
    <clipPath
       clipPathUnits="userSpaceOnUse"
       id="clipPath4730">
      <rect
         id="rect4732"
         width="581.23425"
         height="286.82089"
         x="141.7233"
         y="509.52902"
         ry="0"
         style="opacity:0.29600004;stroke-width:0.77782404" />
    </clipPath>
    <clipPath
       clipPathUnits="userSpaceOnUse"
       id="clipPath4734">
      <rect
         id="rect4736"
         width="581.23425"
         height="286.82089"
         x="141.7233"
         y="509.52902"
         ry="0"
         style="opacity:0.29600004;stroke-width:0.77782404" />
    </clipPath>
    <clipPath
       clipPathUnits="userSpaceOnUse"
       id="clipPath4738">
      <rect
         id="rect4740"
         width="581.23425"
         height="286.82089"
         x="141.7233"
         y="509.52902"
         ry="0"
         style="opacity:0.29600004;stroke-width:0.77782404" />
    </clipPath>
    <clipPath
       clipPathUnits="userSpaceOnUse"
       id="clipPath4742">
      <rect
         id="rect4744"
         width="581.23425"
         height="286.82089"
         x="141.7233"
         y="509.52902"
         ry="0"
         style="opacity:0.29600004;stroke-width:0.77782404" />
    </clipPath>
    <clipPath
       clipPathUnits="userSpaceOnUse"
       id="clipPath4746">
      <rect
         id="rect4748"
         width="581.23425"
         height="286.82089"
         x="141.7233"
         y="509.52902"
         ry="0"
         style="opacity:0.29600004;stroke-width:0.77782404" />
    </clipPath>
    <clipPath
       clipPathUnits="userSpaceOnUse"
       id="clipPath4750">
      <rect
         id="rect4752"
         width="581.23425"
         height="286.82089"
         x="141.7233"
         y="509.52902"
         ry="0"
         style="opacity:0.29600004;stroke-width:0.77782404" />
    </clipPath>
    <clipPath
       clipPathUnits="userSpaceOnUse"
       id="clipPath4754">
      <rect
         id="rect4756"
         width="581.23425"
         height="286.82089"
         x="141.7233"
         y="509.52902"
         ry="0"
         style="opacity:0.29600004;stroke-width:0.77782404" />
    </clipPath>
    <clipPath
       clipPathUnits="userSpaceOnUse"
       id="clipPath4758">
      <rect
         id="rect4760"
         width="581.23425"
         height="286.82089"
         x="141.7233"
         y="509.52902"
         ry="0"
         style="opacity:0.29600004;stroke-width:0.77782404" />
    </clipPath>
    <clipPath
       clipPathUnits="userSpaceOnUse"
       id="clipPath4762">
      <rect
         id="rect4764"
         width="581.23425"
         height="286.82089"
         x="141.7233"
         y="509.52902"
         ry="0"
         style="opacity:0.29600004;stroke-width:0.77782404" />
    </clipPath>
    <clipPath
       clipPathUnits="userSpaceOnUse"
       id="clipPath4766">
      <rect
         id="rect4768"
         width="581.23425"
         height="286.82089"
         x="141.7233"
         y="509.52902"
         ry="0"
         style="opacity:0.29600004;stroke-width:0.77782404" />
    </clipPath>
    <clipPath
       clipPathUnits="userSpaceOnUse"
       id="clipPath4770">
      <rect
         id="rect4772"
         width="581.23425"
         height="286.82089"
         x="141.7233"
         y="509.52902"
         ry="0"
         style="opacity:0.29600004;stroke-width:0.77782404" />
    </clipPath>
    <clipPath
       clipPathUnits="userSpaceOnUse"
       id="clipPath4774">
      <rect
         id="rect4776"
         width="581.23425"
         height="286.82089"
         x="141.7233"
         y="509.52902"
         ry="0"
         style="opacity:0.29600004;stroke-width:0.77782404" />
    </clipPath>
  </defs>
  <title
     id="title6">Asset 7</title>
  <g
     id="g977"
     transform="translate(-141.7233,-509.52902)">
    <path
       clip-path="url(#clipPath4774)"
       id="path8"
       d="M 743.46,39.58 C 918.76,137.15 961.14,375.65 863.58,551 766.02,726.35 546.94,805.21 371.64,707.64 196.34,610.07 153.31,385.24 250.88,209.94 348.45,34.64 568.16,-58 743.46,39.58 Z"
       class="a"
       inkscape:connector-curvature="0"
       style="fill:#004a84" />
    <path
       clip-path="url(#clipPath4770)"
       id="path10"
       d="M 884.74,528.12 C 857.14,600.45 797,657.79 728.63,692.31 657.31,728.31 574.42,738.88 496.69,719.64 368.77,688 245.48,594.29 226.26,457.3 218,398.45 228.59,336.76 254.74,283.49 c 1,-2 3.09,-4.62 0.59,-3.66 -2.5,0.96 -5.81,9 -6.91,11.27 -51.8,105.52 -46,232.27 32.26,323.5 51.69,60.21 128.38,102.06 204.74,121.4 81.08,20.5 167.44,8.4 241.05,-30.75 76.74,-40.81 136.51,-110 167.46,-191.07 1.37,-3.58 -2.62,2 -2.88,2.34 a 56.88,56.88 0 0 0 -6.31,11.63 z"
       class="b"
       inkscape:connector-curvature="0"
       style="fill:#f1bd00" />
    <path
       clip-path="url(#clipPath4766)"
       id="path12"
       d="m 0,299.59 a 292.65,292.65 0 0 0 54.91,164.68 c 36.47,50.47 88.09,82.91 141.09,113.6 27,15.69 54,31.71 78.89,50.82 17.58,13.52 45.79,33.74 44.89,58.58 -1.16,31.89 -50.93,34 -66.46,12 -2,-2.85 -5.45,-10 -4.62,-12.1 1.09,-2.73 11.51,-6.87 15.44,-8.19 14,-4.7 28.55,-5.26 42.63,-0.7 26.09,8.45 53.91,32.41 51.35,62.3 -2.19,25.72 -31.18,38.47 -53.41,42.53 -51.12,9.34 -116.88,-10 -144,-57.31 -7.65,-13.36 -11.06,-29.25 -8.55,-44.51 3.09,-18.81 16.39,-33.1 32.28,-42.58 25.63,-15.3 56.66,-14.83 84.9,-8.21 54,12.66 99.95,42 143.25,75.43 40.53,31.29 86.48,68.4 139.09,74.55 44.23,5.16 86.43,-16.32 103.38,-58.18 a 60.28,60.28 0 0 0 4.48,-26.16 c 0.08,1.56 -6.69,7.12 -6.51,10.58 1.61,30.58 -23.06,50.63 -50.28,58.9 -31.84,9.68 -64.12,2.27 -93.47,-11.56 -50.82,-23.94 -90.64,-63.55 -137.65,-93.38 a 328.38,328.38 0 0 0 -86.79,-39 c -30,-8.44 -63.48,-10.91 -91.73,4.52 -21.11,11.53 -37.63,32.88 -45,55.71 -8.89,27.46 1.86,55.11 21.64,74.74 23.07,22.9 54.46,35.44 86.46,38.7 26.17,2.68 55.16,0.48 77.34,-15.08 14.33,-10 26.63,-27.54 30.27,-44.78 6.57,-31.12 -20.6,-57.18 -47.46,-67.26 -22.26,-8.36 -55.21,-5.32 -68.54,16.81 -3.86,6.41 -6.92,12.91 -3.89,20.33 4.6,11.24 16.88,18.44 28.53,19.6 25,2.48 44.81,-15.38 52,-38.08 8.87,-28 -18.67,-49.84 -38,-65.36 C 233.9,579.34 170.17,554 117.68,511.77 64.33,468.83 26.54,409.56 12.47,342.32 A 290.44,290.44 0 0 1 6.47,289 c 0,1.65 -6.58,7.08 -6.51,10.59 z"
       class="c"
       inkscape:connector-curvature="0"
       style="fill:#e95153" />
    <path
       clip-path="url(#clipPath4762)"
       id="path14"
       d="m 526.31,572.8 v 0 a 8.66,8.66 0 0 1 8.88,-8.82 8.84,8.84 0 0 1 6.72,2.63 l -2.39,2.75 a 6.28,6.28 0 0 0 -4.35,-1.92 5.05,5.05 0 0 0 -4.95,5.31 v 0 a 5.06,5.06 0 0 0 4.95,5.35 6.14,6.14 0 0 0 4.47,-2 l 2.39,2.41 a 8.7,8.7 0 0 1 -7,3.05 8.6,8.6 0 0 1 -8.72,-8.76 z"
       class="d"
       inkscape:connector-curvature="0"
       style="fill:#ffffff" />
    <path
       clip-path="url(#clipPath4758)"
       id="path16"
       d="m 542.9,572.8 v 0 a 9.05,9.05 0 0 1 18.1,0 v 0 a 9.05,9.05 0 0 1 -18.1,0 z m 14.19,0 v 0 a 5.18,5.18 0 0 0 -5.16,-5.36 5.11,5.11 0 0 0 -5.12,5.31 v 0 a 5.18,5.18 0 0 0 5.16,5.35 5.11,5.11 0 0 0 5.12,-5.3 z"
       class="d"
       inkscape:connector-curvature="0"
       style="fill:#ffffff" />
    <path
       clip-path="url(#clipPath4754)"
       id="path18"
       d="m 563.66,564.24 h 3.46 l 8,10.49 v -10.49 h 3.7 v 17 h -3.19 l -8.25,-10.83 v 10.83 h -3.7 z"
       class="d"
       inkscape:connector-curvature="0"
       style="fill:#ffffff" />
    <path
       clip-path="url(#clipPath4750)"
       id="path20"
       d="m 581.49,572.8 v 0 a 8.75,8.75 0 0 1 8.94,-8.82 9.36,9.36 0 0 1 6.69,2.34 l -2.36,2.85 a 6.26,6.26 0 0 0 -4.45,-1.73 5.12,5.12 0 0 0 -4.9,5.31 v 0 a 5.1,5.1 0 0 0 5.16,5.4 6,6 0 0 0 3.53,-1 v -2.45 h -3.77 v -3.24 h 7.4 v 7.4 a 11,11 0 0 1 -7.28,2.71 8.54,8.54 0 0 1 -8.96,-8.77 z"
       class="d"
       inkscape:connector-curvature="0"
       style="fill:#ffffff" />
    <path
       clip-path="url(#clipPath4746)"
       id="path22"
       d="m 600.88,564.24 h 7.79 a 6.74,6.74 0 0 1 5,1.73 5.32,5.32 0 0 1 1.47,3.89 v 0 a 5.29,5.29 0 0 1 -3.66,5.28 l 4.16,6.08 h -4.38 l -3.65,-5.45 h -2.94 v 5.45 h -3.75 z m 7.55,8.27 c 1.82,0 2.87,-1 2.87,-2.41 v -0.05 c 0,-1.6 -1.12,-2.43 -2.95,-2.43 h -3.72 v 4.89 z"
       class="d"
       inkscape:connector-curvature="0"
       style="fill:#ffffff" />
    <path
       clip-path="url(#clipPath4742)"
       id="path24"
       d="m 617.91,564.24 h 12.85 v 3.33 h -9.12 V 571 h 8 v 3.33 h -8 v 3.58 h 9.25 v 3.33 h -13 z"
       class="d"
       inkscape:connector-curvature="0"
       style="fill:#ffffff" />
    <path
       clip-path="url(#clipPath4738)"
       id="path26"
       d="m 632.46,578.79 2.22,-2.65 a 7.84,7.84 0 0 0 5.08,2.07 c 1.54,0 2.46,-0.61 2.46,-1.61 v -0.05 c 0,-0.95 -0.58,-1.43 -3.43,-2.16 -3.43,-0.88 -5.65,-1.83 -5.65,-5.21 v 0 c 0,-3.09 2.49,-5.14 6,-5.14 a 9.82,9.82 0 0 1 6.32,2.17 l -1.97,2.79 a 8.07,8.07 0 0 0 -4.43,-1.68 c -1.44,0 -2.19,0.66 -2.19,1.49 v 0.05 c 0,1.12 0.73,1.48 3.67,2.24 3.46,0.9 5.4,2.14 5.4,5.11 v 0 c 0,3.38 -2.58,5.28 -6.25,5.28 a 10.84,10.84 0 0 1 -7.23,-2.7 z"
       class="d"
       inkscape:connector-curvature="0"
       style="fill:#ffffff" />
    <path
       clip-path="url(#clipPath4734)"
       id="path28"
       d="m 647.28,578.79 2.21,-2.65 a 7.84,7.84 0 0 0 5.09,2.07 c 1.53,0 2.45,-0.61 2.45,-1.61 v -0.05 c 0,-0.95 -0.58,-1.43 -3.43,-2.16 -3.43,-0.88 -5.64,-1.83 -5.64,-5.21 v 0 c 0,-3.09 2.48,-5.14 6,-5.14 a 9.86,9.86 0 0 1 6.33,2.17 l -2,2.82 a 8,8 0 0 0 -4.43,-1.68 c -1.43,0 -2.19,0.66 -2.19,1.49 v 0.05 c 0,1.12 0.73,1.48 3.68,2.24 3.45,0.9 5.4,2.14 5.4,5.11 v 0 c 0,3.38 -2.58,5.28 -6.26,5.28 a 10.81,10.81 0 0 1 -7.21,-2.73 z"
       class="d"
       inkscape:connector-curvature="0"
       style="fill:#ffffff" />
    <path
       clip-path="url(#clipPath4730)"
       id="path30"
       d="m 662.36,572.8 v 0 a 9.05,9.05 0 0 1 18.1,0 v 0 a 9.05,9.05 0 0 1 -18.1,0 z m 14.18,0 v 0 a 5.17,5.17 0 0 0 -5.15,-5.36 5.1,5.1 0 0 0 -5.11,5.31 v 0 a 5.17,5.17 0 0 0 5.16,5.35 5.09,5.09 0 0 0 5.1,-5.3 z"
       class="d"
       inkscape:connector-curvature="0"
       style="fill:#ffffff" />
    <path
       clip-path="url(#clipPath4726)"
       id="path32"
       d="M 527.06,588.57 H 535 a 6.1,6.1 0 0 1 4.45,1.51 3.89,3.89 0 0 1 1.17,2.89 v 0 a 4,4 0 0 1 -2.24,3.68 c 2,0.75 3.19,1.89 3.19,4.18 v 0 c 0,3.12 -2.53,4.67 -6.37,4.67 h -8.11 z m 7.11,6.88 c 1.65,0 2.7,-0.53 2.7,-1.8 v 0 c 0,-1.12 -0.88,-1.76 -2.46,-1.76 h -3.7 v 3.6 z m 1,6.87 c 1.65,0 2.65,-0.59 2.65,-1.85 v -0.05 c 0,-1.14 -0.85,-1.85 -2.78,-1.85 h -4.33 v 3.75 z"
       class="d"
       inkscape:connector-curvature="0"
       style="fill:#ffffff" />
    <path
       clip-path="url(#clipPath4722)"
       id="path34"
       d="m 544.89,588.57 h 7.79 a 6.8,6.8 0 0 1 5,1.73 5.35,5.35 0 0 1 1.46,3.89 v 0 a 5.29,5.29 0 0 1 -3.66,5.28 l 4.17,6.08 h -4.39 l -3.65,-5.45 h -2.94 v 5.45 h -3.75 z m 7.55,8.27 c 1.82,0 2.87,-1 2.87,-2.41 v 0 c 0,-1.6 -1.12,-2.43 -2.95,-2.43 h -3.72 v 4.89 z"
       class="d"
       inkscape:connector-curvature="0"
       style="fill:#ffffff" />
    <path
       clip-path="url(#clipPath4718)"
       id="path36"
       d="m 568.85,588.45 h 3.46 l 7.3,17.15 h -3.92 l -1.56,-3.82 h -7.2 l -1.56,3.82 h -3.82 z m 3.94,10 -2.26,-5.45 -2.26,5.52 z"
       class="d"
       inkscape:connector-curvature="0"
       style="fill:#ffffff" />
    <path
       clip-path="url(#clipPath4714)"
       id="path38"
       d="m 581.12,603.12 2.21,-2.65 a 7.86,7.86 0 0 0 5.09,2.07 c 1.53,0 2.46,-0.61 2.46,-1.61 v 0 c 0,-1 -0.59,-1.43 -3.43,-2.16 -3.43,-0.88 -5.65,-1.83 -5.65,-5.21 v 0 c 0,-3.09 2.48,-5.14 6,-5.14 a 9.84,9.84 0 0 1 6.33,2.17 l -2,2.82 a 8,8 0 0 0 -4.42,-1.68 c -1.44,0 -2.2,0.66 -2.2,1.49 v 0 c 0,1.12 0.73,1.48 3.68,2.24 3.45,0.9 5.4,2.14 5.4,5.11 v 0.05 c 0,3.38 -2.58,5.28 -6.25,5.28 a 10.82,10.82 0 0 1 -7.22,-2.78 z"
       class="d"
       inkscape:connector-curvature="0"
       style="fill:#ffffff" />
    <path
       clip-path="url(#clipPath4710)"
       id="path40"
       d="m 598.07,588.57 h 3.74 v 17 h -3.74 z"
       class="d"
       inkscape:connector-curvature="0"
       style="fill:#ffffff" />
    <path
       clip-path="url(#clipPath4706)"
       id="path42"
       d="m 606.15,588.57 h 3.75 v 13.63 h 8.49 v 3.4 h -12.24 z"
       class="d"
       inkscape:connector-curvature="0"
       style="fill:#ffffff" />
    <path
       clip-path="url(#clipPath4702)"
       id="path44"
       d="m 621,588.57 h 12.85 v 3.33 h -9.13 v 3.46 h 8 v 3.33 h -8 v 3.58 H 634 v 3.33 h -13 z"
       class="d"
       inkscape:connector-curvature="0"
       style="fill:#ffffff" />
    <path
       clip-path="url(#clipPath4698)"
       id="path46"
       d="m 637.74,588.57 h 3.75 v 17 h -3.75 z"
       class="d"
       inkscape:connector-curvature="0"
       style="fill:#ffffff" />
    <path
       clip-path="url(#clipPath4694)"
       id="path48"
       d="m 645.83,588.57 h 7.78 a 6.8,6.8 0 0 1 5,1.73 5.31,5.31 0 0 1 1.46,3.89 v 0 a 5.28,5.28 0 0 1 -3.65,5.28 l 4.16,6.08 h -4.38 l -3.65,-5.45 h -2.95 v 5.45 h -3.74 z m 7.54,8.27 c 1.83,0 2.87,-1 2.87,-2.41 v 0 c 0,-1.6 -1.12,-2.43 -2.94,-2.43 h -3.73 v 4.89 z"
       class="d"
       inkscape:connector-curvature="0"
       style="fill:#ffffff" />
    <path
       clip-path="url(#clipPath4690)"
       id="path50"
       d="m 662.52,597.13 v 0 a 9.06,9.06 0 0 1 18.11,-0.05 v 0.05 a 9.06,9.06 0 0 1 -18.11,0 z m 14.19,0 v 0 a 5.18,5.18 0 0 0 -5.16,-5.36 5.1,5.1 0 0 0 -5.11,5.31 v 0.05 a 5.17,5.17 0 0 0 5.16,5.35 5.1,5.1 0 0 0 5.11,-5.35 z"
       class="d"
       inkscape:connector-curvature="0"
       style="fill:#ffffff" />
    <path
       clip-path="url(#clipPath4686)"
       id="path52"
       d="m 527.06,612.5 h 4.43 c 3.56,0 6,2.45 6,5.65 v 0 a 5.68,5.68 0 0 1 -6,5.67 h -4.43 z m 4.43,9.1 a 3.24,3.24 0 0 0 3.42,-3.39 v 0 a 3.26,3.26 0 0 0 -3.42,-3.42 h -1.93 v 6.84 z"
       class="d"
       inkscape:connector-curvature="0"
       style="fill:#ffffff" />
    <path
       clip-path="url(#clipPath4682)"
       id="path54"
       d="m 538.51,618.21 v 0 a 5.87,5.87 0 0 1 6,-5.87 5.81,5.81 0 0 1 6,5.84 v 0 a 6.03,6.03 0 0 1 -12.06,0 z m 9.45,0 v 0 a 3.44,3.44 0 0 0 -3.43,-3.57 3.4,3.4 0 0 0 -3.41,3.54 v 0 a 3.45,3.45 0 0 0 3.44,3.56 3.38,3.38 0 0 0 3.44,-3.53 z"
       class="d"
       inkscape:connector-curvature="0"
       style="fill:#ffffff" />
    <path
       clip-path="url(#clipPath4678)"
       id="path56"
       d="m 559.45,612.78 h 3.46 l 7.3,17.15 h -3.92 l -1.56,-3.82 h -7.2 l -1.53,3.82 h -3.82 z m 3.95,10 -2.27,-5.52 -2.26,5.52 z"
       class="d"
       inkscape:connector-curvature="0"
       style="fill:#ffffff" />
    <path
       clip-path="url(#clipPath4674)"
       id="path58"
       d="m 572.76,612.9 h 3.74 v 13.63 h 8.5 v 3.4 h -12.24 z"
       class="d"
       inkscape:connector-curvature="0"
       style="fill:#ffffff" />
    <path
       clip-path="url(#clipPath4670)"
       id="path60"
       d="m 586.65,621.47 v -0.05 a 8.75,8.75 0 0 1 8.94,-8.81 9.36,9.36 0 0 1 6.69,2.33 l -2.36,2.85 a 6.24,6.24 0 0 0 -4.45,-1.73 5.12,5.12 0 0 0 -4.9,5.31 v 0 a 5.11,5.11 0 0 0 5.16,5.4 6,6 0 0 0 3.53,-1 v -2.44 h -3.77 v -3.23 h 7.4 v 7.39 a 11,11 0 0 1 -7.28,2.71 8.54,8.54 0 0 1 -8.96,-8.73 z"
       class="d"
       inkscape:connector-curvature="0"
       style="fill:#ffffff" />
    <path
       clip-path="url(#clipPath4666)"
       id="path62"
       d="m 605.81,621.47 v -0.05 a 9.06,9.06 0 0 1 18.11,0 v 0 a 8.82,8.82 0 0 1 -9.08,8.81 8.73,8.73 0 0 1 -9.03,-8.76 z m 14.19,0 v -0.05 a 5.19,5.19 0 0 0 -5.16,-5.36 5.1,5.1 0 0 0 -5.11,5.31 v 0 a 5.17,5.17 0 0 0 5.16,5.35 5.09,5.09 0 0 0 5.11,-5.25 z"
       class="d"
       inkscape:connector-curvature="0"
       style="fill:#ffffff" />
    <path
       clip-path="url(#clipPath4662)"
       id="path64"
       d="m 627.3,612.9 h 6.7 c 5.35,0 9,3.67 9,8.47 v 0 c 0,4.79 -3.7,8.51 -9,8.51 h -6.7 z m 6.7,13.65 a 4.85,4.85 0 0 0 5.13,-5.08 v -0.05 A 4.89,4.89 0 0 0 634,616.28 h -2.9 v 10.27 z"
       class="d"
       inkscape:connector-curvature="0"
       style="fill:#ffffff" />
    <path
       clip-path="url(#clipPath4658)"
       id="path66"
       d="m 651.13,612.78 h 3.45 l 7.3,17.15 H 658 l -1.56,-3.82 h -7.24 l -1.55,3.82 h -3.82 z M 647.87,611 c 0.56,-2 1.33,-3.36 3,-3.36 1.51,0 2.92,0.95 3.8,0.95 0.88,0 1.07,-0.41 1.41,-1.19 l 2,0.61 c -0.56,2 -1.34,3.36 -3,3.36 -1.51,0 -2.92,-1 -3.8,-1 -0.88,0 -1.07,0.41 -1.41,1.19 z m 7.2,11.85 -2.26,-5.52 -2.27,5.52 z"
       class="d"
       inkscape:connector-curvature="0"
       style="fill:#ffffff" />
    <path
       clip-path="url(#clipPath4654)"
       id="path68"
       d="m 662.73,621.47 v -0.05 a 9.06,9.06 0 0 1 18.11,0 v 0 a 9.06,9.06 0 0 1 -18.11,0.05 z m 14.19,0 v -0.05 a 5.18,5.18 0 0 0 -5.16,-5.36 5.1,5.1 0 0 0 -5.11,5.31 v 0 a 5.17,5.17 0 0 0 5.16,5.35 5.09,5.09 0 0 0 5.11,-5.25 z"
       class="d"
       inkscape:connector-curvature="0"
       style="fill:#ffffff" />
    <path
       clip-path="url(#clipPath4650)"
       id="path70"
       d="m 491.87,573.22 a 27.86,27.86 0 0 0 -1.33,-6.62 2.56,2.56 0 0 0 -0.86,-1.12 16.78,16.78 0 0 0 -5.18,-6.69 11.44,11.44 0 0 0 -5.12,-2.09 c -0.24,0 -0.45,0 -0.48,0.07 -0.03,0.07 0.14,0.17 0.38,0.2 a 12.3,12.3 0 0 1 4.4,1.69 c 0.36,0.39 -0.23,0.33 -0.23,0.33 a 11.26,11.26 0 0 0 -3.16,-1.27 c 0,0 -0.09,0 -0.1,0 -0.01,0 0,0 0.05,0 a 13.78,13.78 0 0 1 2.22,0.9 c -0.13,0 -0.21,0 -0.21,0.09 0,0.09 0.07,0.17 0.2,0.27 a 5.1,5.1 0 0 0 -0.5,-0.19 c -0.11,0 -0.19,0 -0.19,0 0,0 0,0.06 0.11,0.09 -1,-0.36 -1.59,-0.43 -1,-0.25 v 0 c -0.28,0 -0.46,0.07 0.08,0.23 -0.23,0 -0.41,0 -0.41,0.06 0,0.06 0.19,0.2 0.42,0.25 a 5.94,5.94 0 0 1 2.16,0.95 10.16,10.16 0 0 0 -2.79,-0.9 c -0.08,0 -0.15,0 -0.15,0 0,0 0.06,0.06 0.14,0.08 l 1.23,0.6 c 0.5,0.24 0.35,0.38 0.35,0.38 0,0 -0.34,-0.21 -0.51,-0.29 a 0.11,0.11 0 0 0 -0.09,0 c 0,0 0,0 0,0.05 a 3.28,3.28 0 0 1 0.46,0.25 l 0.15,0.12 a 15.27,15.27 0 0 1 1.69,1.15 c 0.18,0.27 -0.3,0 -0.3,0 l -0.09,-0.05 c 0,0 0,0 0,0.05 a 13.72,13.72 0 0 1 2.2,3 34.85,34.85 0 0 1 2.17,5.92 c 0.05,0.21 1.12,6.55 -1.32,9.9 a 2.18,2.18 0 0 0 -0.64,1.47 c 0.06,0.2 0.28,0.24 0.56,0.1 l -0.81,1.25 c -0.1,0.4 -0.41,0.82 -0.51,1.2 0,0 -0.46,0.34 -0.18,0.54 a 0.57,0.57 0 0 0 0.48,0.34 c 0,0 -0.14,0.5 0.17,0.53 -0.25,0.21 -0.19,0.34 -0.39,0.5 -0.2,0.16 -0.5,0.55 -0.26,0.58 l -0.29,0.18 a 0.19,0.19 0 0 1 0,0.12 0.35,0.35 0 0 0 0.21,0 c 0,0 -0.11,0.28 0.15,0.24 0,0.08 0,0.19 0.05,0.22 a 1.09,1.09 0 0 0 0.53,0 0.14,0.14 0 0 1 0,0.19 c -0.27,0.26 -0.47,0.66 0.43,0.49 0.67,-0.12 1.84,-0.45 3.06,-2.42 a 8.36,8.36 0 0 0 1.62,-2.82 4.51,4.51 0 0 0 0.83,-1.9 19.53,19.53 0 0 0 0.6,-7.97 z"
       class="b"
       inkscape:connector-curvature="0"
       style="fill:#f1bd00" />
    <polygon
       clip-path="url(#clipPath4646)"
       id="polygon72"
       points="423.47,551.91 423.47,551.9 "
       class="d"
       style="fill:#ffffff" />
    <path
       clip-path="url(#clipPath4642)"
       id="path74"
       d="m 438.1,549.75 a 10.52,10.52 0 0 0 -4.51,-1.56 11.19,11.19 0 0 0 -6.34,1.27 c -0.27,-0.14 -1.07,0.18 -1.14,0.23 a 14,14 0 0 0 -2.64,2.21 6.59,6.59 0 0 0 -1.6,1.65 10.39,10.39 0 0 0 -1.49,2.82 c 0,0 -0.23,0.47 -0.32,0.68 a 9.48,9.48 0 0 0 -0.49,2.06 1.39,1.39 0 0 0 -0.07,0.95 5.08,5.08 0 0 0 -0.1,0.92 c 0,0.53 0.13,1.69 0.13,1.74 a 4.45,4.45 0 0 0 0.07,0.79 c 0.07,0.49 0.18,1.24 0.5,1.45 a 3.16,3.16 0 0 0 0.85,1.2 c 0.16,0.11 0.24,0.12 0.29,0.08 l 0.12,0.23 a 4.5,4.5 0 0 0 0.64,-0.58 h 0.05 c 0,0 0,0 0.11,0.05 v 0 c 0,0 0,0 0,-0.07 a 0.45,0.45 0 0 1 0,-0.08 v -0.07 a 0.6,0.6 0 0 0 0.14,-0.45 c -0.13,-0.47 -0.32,-0.4 -0.39,-0.79 a 0.22,0.22 0 0 0 0.26,0.16 c 0.21,0 0.24,-0.32 0.24,-0.32 0,0 0.32,0.37 0.51,0.09 a 1.13,1.13 0 0 0 0.06,-0.47 8.81,8.81 0 0 1 0.14,-1.25 3.18,3.18 0 0 0 -0.1,-1 c 0.14,0.25 0.32,0.34 0.44,0.26 a 0.68,0.68 0 0 0 0.18,-0.49 3.1,3.1 0 0 0 0,-0.79 6.83,6.83 0 0 1 0.21,-2.29 10.57,10.57 0 0 1 1.57,-3.14 12.14,12.14 0 0 1 5.22,-4 8.5,8.5 0 0 1 2.78,-0.63 c 0,0 0,0 0,0 a 0.13,0.13 0 0 0 -0.09,0 8.23,8.23 0 0 0 -1.65,0.09 4.46,4.46 0 0 1 0.93,-0.26 10.12,10.12 0 0 1 2.18,0.23 c 0.06,0 0.09,0 0.09,0 0,0 1.15,0.33 1.2,0.11 l 0.31,0.13 c 0.07,0 0.13,0 0.14,0 0.01,0 0,-0.07 -0.1,-0.11 a 10,10 0 0 0 -2.36,-1 l 0.36,0.05 a 10.19,10.19 0 0 1 1.57,0.57 c 0.19,0.09 0.36,0.12 0.4,0.07 0.04,-0.05 0,-0.08 -0.08,-0.13 0.28,-0.38 -0.72,-0.62 -0.72,-0.62 0,0 -0.43,-0.22 -0.57,-0.27 0.13,0 0.22,0 0.25,-0.05 0.03,-0.05 0,-0.11 -0.12,-0.18 a 14.16,14.16 0 0 1 2,0.68 c 0,0 0.06,0 0.05,0 l -0.08,-0.06 a 10.83,10.83 0 0 0 -1.66,-0.66 h 0.08 c 0,0 0.17,-0.18 -0.13,-0.4 a 12.14,12.14 0 0 1 2.75,1.16 c 0.18,0.11 0.33,0.15 0.34,0.09 0.01,-0.06 -0.23,-0.19 -0.41,-0.3 z"
       class="b"
       inkscape:connector-curvature="0"
       style="fill:#f1bd00" />
    <path
       clip-path="url(#clipPath4638)"
       id="path76"
       d="m 484.92,591.9 a 31.83,31.83 0 0 0 -4.74,-11.08 7,7 0 0 1 -1.77,-5.61 63.94,63.94 0 0 0 0.85,-12.13 A 26.59,26.59 0 0 0 475,550.8 c -2.44,-3.61 -7.48,-7.63 -12.59,-8.68 a 26.59,26.59 0 0 0 -18.52,3.55 27,27 0 0 0 -10,12 2.29,2.29 0 0 0 -0.22,1.39 c -0.48,0.78 -2.78,1.69 -4.3,2.18 -3.91,1.24 -8.27,4.83 -10.05,7 -5.15,6.22 -3.94,14.59 -3.25,12.93 a 15.79,15.79 0 0 0 2.11,6.42 24.74,24.74 0 0 0 7.7,7.64 c 0.81,0.49 1.57,0.94 2.18,1.27 0.45,0.22 0.28,-0.05 0.11,-0.27 0.14,0.08 0.82,0.34 0.8,0.23 0.89,0.47 0.16,-0.15 -0.28,-0.51 a 9.7,9.7 0 0 0 1.41,0.7 c 0.31,0.17 0.61,0.34 0.89,0.48 1.7,0.87 2.8,1.37 2.71,1.16 a 4.49,4.49 0 0 0 -1,-0.58 c 0.92,0.41 1.06,0.32 1,0.25 -0.06,-0.07 -0.46,-0.25 -1.39,-0.82 -0.93,-0.57 -1.51,-1.93 -2.63,-2.8 -1.12,-0.87 -3.8,-2.92 -4.78,-4.51 a 17.31,17.31 0 0 1 -3.19,-11.72 12.58,12.58 0 0 1 7.76,-10.48 c 4.07,-1.86 6,-2.29 7.05,-3.28 a 8,8 0 0 0 1.7,-3.16 22.24,22.24 0 0 1 3.78,-6.07 22.56,22.56 0 0 1 12.56,-7.38 17.27,17.27 0 0 1 7,0.19 c 3,0.68 6.22,3.62 7.39,5 0.1,-0.25 0.58,0 1,0.57 3.58,4.57 4.89,9.91 4.15,16.68 -0.19,1.83 -0.51,3.61 -0.58,5.37 -0.2,5.61 2.92,8.18 2.92,8.18 0,0 1,1.43 2.3,3.68 1.3,2.25 2.51,6.62 2.15,8.89 -0.36,2.27 -0.45,4.12 -3.19,6.62 -2.74,2.5 -7.16,3.38 -12.11,2.43 a 13.4,13.4 0 0 0 -1.72,0 c -0.1,0 0.26,0.22 0.28,0.23 0.02,0.01 0,0.09 0.24,0.18 0.77,0.25 1.58,0.49 2.4,0.71 a 22.13,22.13 0 0 0 6.7,0.07 c 0,0 0.36,0 0.06,0.15 -0.3,0.15 -0.92,0.23 -1.38,0.31 -1.35,0.16 0.51,0.24 0.51,0.24 a 3,3 0 0 0 0.68,0 c 0,0 -0.83,0.22 -1.17,0.28 -0.68,0.09 -1.13,0.14 -0.61,0.17 a 8.29,8.29 0 0 0 1.7,-0.16 c 0.14,0 0.2,0 0.09,0.09 l -0.67,0.15 c -0.69,0.09 -1.16,0.15 -0.62,0.17 l 1,-0.05 a 12.44,12.44 0 0 0 7.21,-3.2 27.56,27.56 0 0 0 3.27,-3.38 12.68,12.68 0 0 0 1.36,-9.41 z"
       class="b"
       inkscape:connector-curvature="0"
       style="fill:#f1bd00" />
    <path
       clip-path="url(#clipPath4634)"
       id="path78"
       d="m 473.34,594.08 c -2.7,-1.2 -8.63,-1.69 -11.89,0.54 -3.56,2.43 -5.16,2.06 -5.16,2.06 0,0 3.42,-4.29 3.6,-8.12 0.3,-6.39 -2.77,-10.88 -4.65,-14.95 a 0.64,0.64 0 0 0 -1.19,0 c -1.37,4.39 -5.42,6.93 -6.72,13.47 -1.62,8.21 3.59,11.29 -0.06,18.74 -2.3,4.71 -0.25,6.78 1.92,9.36 a 6.47,6.47 0 0 1 -1.1,-3.54 c 0,-3.37 2.39,-3.76 3.25,-8.77 0.94,-5.49 -1.89,-9 -1.55,-13.83 0.34,-4.83 4.66,-8.43 4.66,-8.43 a 10.89,10.89 0 0 1 2.2,7.42 c -0.3,5.55 -2.95,6.47 -3.14,8.71 -0.19,2.24 -0.32,2.64 1.1,2.8 a 12.93,12.93 0 0 0 7.08,-1.94 12.36,12.36 0 0 1 8.41,-1.6 8.55,8.55 0 0 1 -3.74,4.09 c -2.92,1.77 -7.18,1.69 -9.24,1.52 V 602 c 4.69,1.82 8.85,1.35 11,0.2 3,-1.54 3.67,-4.39 5.54,-6.66 a 1,1 0 0 0 -0.32,-1.46 z"
       class="d"
       inkscape:connector-curvature="0"
       style="fill:#ffffff" />
    <path
       clip-path="url(#clipPath4630)"
       id="path80"
       d="m 445.14,592.86 c -4.57,-2 -6.09,-0.88 -8.88,-3.63 a 45.44,45.44 0 0 1 -3.44,-3.75 0.43,0.43 0 0 0 -0.77,0.24 c -0.15,2.32 -0.14,7.74 2.73,10.57 a 11.39,11.39 0 0 0 8.85,3.37 v -0.28 c -3.26,-1.38 -7.25,-3.55 -7.81,-7.8 2.91,2.43 6.48,2.46 9.18,4.12 a 15.67,15.67 0 0 1 4.54,4.93 l 0.65,-1.39 a 8.52,8.52 0 0 0 -5.05,-6.38 z"
       class="d"
       inkscape:connector-curvature="0"
       style="fill:#ffffff" />
    <path
       clip-path="url(#clipPath4626)"
       id="path82"
       d="m 491.88,624 c -1.17,-1.71 -5.56,-5.88 -11.88,-8.34 a 64.83,64.83 0 0 0 -21.37,-4.16 79,79 0 0 0 -20.39,1.63 c -7.22,1.41 -13.37,3.61 -17,5.85 -0.54,0.38 -2.62,2 -3.14,2.44 a 0.83,0.83 0 0 1 0.06,0.59 4.2,4.2 0 0 0 -1.07,0.72 c -2.24,1.72 -0.56,1.49 0.71,1.7 a 0.55,0.55 0 0 1 0.36,0.1 l -0.89,1.5 c 0,0.16 0.58,-0.17 1.09,-0.46 0,0 0.55,-0.05 -1.37,1.09 0.23,0.12 0.88,-0.18 1.49,-0.45 0.61,-0.27 1.18,-0.5 1.22,-0.28 -0.36,0.28 -2.34,0.53 -2.23,1.09 0,0 -0.55,0.42 -0.44,0.67 a 2.56,2.56 0 0 0 -0.5,0.54 c -0.21,0.38 0.11,0.5 1.24,0.22 -0.35,0.18 -0.79,0.35 -1.22,0.55 a 5.65,5.65 0 0 0 -1.16,0.62 1.64,1.64 0 0 0 1.52,0.21 22.29,22.29 0 0 0 2.82,-0.55 111.56,111.56 0 0 1 13.52,-5 c 0,-0.19 -0.35,-0.31 0,-0.51 1.16,-0.54 2.3,-0.19 3.46,-0.67 a 7.32,7.32 0 0 0 3.12,-0.23 c 1.83,-0.45 3.66,-0.83 5.49,-1.19 -0.07,-0.11 -0.1,-0.21 0.08,-0.28 a 20.69,20.69 0 0 1 2.94,-0.26 14.17,14.17 0 0 0 3.88,-0.93 c 0.68,-0.09 1.09,-0.08 1.78,-0.17 1.38,-0.09 2.05,-0.51 3.48,-0.51 a 26.85,26.85 0 0 1 3.65,-0.26 16.84,16.84 0 0 0 2.71,-0.34 c 1.53,-0.08 -2.2,-2.3 9.68,-1 11.2,1.28 16.89,5 18.5,6.64 -0.21,-0.45 -0.54,-0.67 -0.14,-0.57 z"
       class="d"
       inkscape:connector-curvature="0"
       style="fill:#ffffff" />
    <path
       clip-path="url(#clipPath4622)"
       id="path84"
       d="m 450.41,656.16 a 3,3 0 0 1 -1.86,-0.87 2.53,2.53 0 0 1 -1,-1.93 q 0,-1.07 2.38,-6.21 2.38,-5.14 5.07,-10.28 l -0.12,-0.12 q -3.53,2.6 -4.5,2.6 a 1.14,1.14 0 0 1 -1,-0.42 0.92,0.92 0 0 1 -0.21,-0.84 25.17,25.17 0 0 0 5.24,-3.81 42.63,42.63 0 0 0 4,-4.06 0.85,0.85 0 0 1 0.69,-0.29 2.73,2.73 0 0 1 1.38,0.47 3.78,3.78 0 0 1 1.17,1.05 c 0.27,0.4 0.3,0.67 0.09,0.84 a 117.18,117.18 0 0 0 -7,13.33 q -3.8,8.31 -3.79,10.09 c 0.05,0.29 -0.13,0.45 -0.54,0.45 z"
       class="d"
       inkscape:connector-curvature="0"
       style="fill:#ffffff" />
    <path
       clip-path="url(#clipPath4618)"
       id="path86"
       d="m 478.44,635.29 q 0,3.9 -8.31,7.67 a 9.76,9.76 0 0 1 3,2.16 4.29,4.29 0 0 1 1.25,3 6,6 0 0 1 -2,4.28 13.44,13.44 0 0 1 -4.91,3.11 16.67,16.67 0 0 1 -5.88,1.1 6.51,6.51 0 0 1 -4.15,-1.2 3.26,3.26 0 0 1 -1.53,-2.42 0.83,0.83 0 0 1 0.94,-0.93 l 0.34,0.45 a 2.31,2.31 0 0 0 0.67,0.36 3.55,3.55 0 0 0 1.38,0.24 16.39,16.39 0 0 0 8.23,-2 q 3.5,-2 3.49,-4.59 c 0,-1 -0.84,-1.55 -2.52,-1.55 a 20.24,20.24 0 0 0 -5.55,1.06 c -0.27,0.11 -0.53,-0.11 -0.79,-0.65 a 4,4 0 0 1 -0.39,-1.75 2.3,2.3 0 0 1 0.25,-1.09 31.89,31.89 0 0 0 9.75,-4.39 c 2.44,-1.76 3.67,-3.18 3.67,-4.26 0,-0.57 -0.41,-0.85 -1.22,-0.85 a 12.29,12.29 0 0 0 -6.1,1.68 q -3,1.69 -3.67,3.15 c -0.41,0 -0.81,-0.33 -1.22,-1 a 3.7,3.7 0 0 1 -0.6,-1.92 c 0,-1.11 1.15,-2.22 3.46,-3.31 a 14.67,14.67 0 0 1 6.19,-1.65 6.1,6.1 0 0 1 4.42,1.75 5,5 0 0 1 1.8,3.55 z"
       class="d"
       inkscape:connector-curvature="0"
       style="fill:#ffffff" />
    <path
       clip-path="url(#clipPath4614)"
       id="path88"
       d="m 487.71,645.08 c 1,0.18 1.5,0.69 1.5,1.5 a 1.58,1.58 0 0 1 -0.24,0.89 42.36,42.36 0 0 0 -6.28,-0.36 31.84,31.84 0 0 0 -4.75,0.24 c -0.27,-0.08 -0.4,-0.31 -0.4,-0.69 a 1.91,1.91 0 0 1 0.62,-1.34 2.25,2.25 0 0 1 1.69,-0.65 48.15,48.15 0 0 1 7.86,0.41 z M 485,643.29 a 5.41,5.41 0 0 1 -2.92,-1 3,3 0 0 1 -1.5,-2.74 9.83,9.83 0 0 1 1.9,-5.09 q 1.9,-2.94 3.41,-3.11 a 3.77,3.77 0 0 1 2.76,-1.38 3.29,3.29 0 0 1 2.35,1 3.42,3.42 0 0 1 1.05,2.54 9.94,9.94 0 0 1 -1,3.79 14.21,14.21 0 0 1 -2.68,4.08 4.77,4.77 0 0 1 -3.37,1.91 z M 489.38,633 c 0,-1 -0.38,-1.55 -1.14,-1.55 a 2.19,2.19 0 0 0 -1.22,0.45 q 0.69,0.74 0.57,1.26 c 0,0.14 -0.09,0.17 -0.2,0.12 -1,0.16 -1.89,1.11 -2.68,2.84 a 11.45,11.45 0 0 0 -1.17,4.59 c 0,0.73 0.21,1.1 0.65,1.1 0.89,0 2,-1.11 3.26,-3.31 a 11.74,11.74 0 0 0 1.93,-5.5 z"
       class="d"
       inkscape:connector-curvature="0"
       style="fill:#ffffff" />
  </g>
</svg>
